<svg viewBox="0 0 500 500" width="500" height="500" align='right'>
			  <polyline class='line' points="95.23699951171875 252.10400390625 40.54199981689453 264.9809875488281 63.91899871826172 204.36599731445312 98.8280029296875 164.34100341796875 164.77200317382812 257.6709899902344 96.53299713134766 254.51400756835938 83.32099914550781 218.6479949951172"></polyline>
			  <polyline style="fill: rgb(216, 216, 216); stroke: rgb(0, 0, 0);" points="58.69 294.797"></polyline>
			  <polyline class='line' points="40.678001403808594 264.9309997558594 56.59700012207031 268.0169982910156"></polyline>
			  <polyline class='line' points="46.334999084472656 266.7229919433594 32.37099838256836 313.2449951171875 48.444000244140625 308.39898681640625"></polyline>
			  <line class='line' x1="32.776" y1="312.321" x2="56.38422792814825" y2="267.92727955782425"></line>
			  <polyline class='line' points="58.08000183105469 261.3190002441406 48.87699890136719 308.3580017089844 53.053001403808594 328.92498779296875 66.72100067138672 331.8269958496094 76.12000274658203 344.5 89.38800048828125 343.37799072265625 103.7760009765625 355.385986328125 113.2229995727539 355.6780090332031 142.45700073242188 374.7300109863281 187.1649932861328 399.14801025390625 193.31199645996094 398.16400146484375 213.4219970703125 370.7460021972656 218.04400634765625 351.593994140625 216.63699340820312 311.84698486328125 183.26199340820312 305.4540100097656 177.2030029296875 289.6929931640625 171.177001953125 242.3800048828125 166.23800659179688 188.08099365234375 167.85899353027344 154.01400756835938 175.468994140625 121.28500366210938 187.50599670410156 100.15399932861328 200.5679931640625 89.44999694824219 212.89999389648438 109.86599731445312 196.74200439453125 117.13400268554688 196.35299682617188 92.22699737548828"></polyline>
			  <polyline class='line' points="201.488 89.678 221.07 92.24 231.729 93.795 269.89 116.612 266.772 130.424 260.74 137.081 225.137 121.728 217.125 107.895 209.948 104.049"></polyline>
			  <polyline class='line' points="213.066 109.709 216.123 107.38"></polyline>
			  <polyline class='line' points="213.14199829101562 109.87000274658203 200.85699462890625 117.59100341796875 199.0019989013672 127.99600219726562 196.59800720214844 142.8719940185547 193.8730010986328 170.31300354003906 193.3780059814453 193.27000427246094 197.73300170898438 215.2270050048828 202.4199981689453 232.88600158691406 211.8179931640625 263.6400146484375 219.94500732421875 280.5190124511719 227.63999938964844 311.2489929199219 232.42799377441406 356.1090087890625"></polyline>
			  <polyline class='line' points="232.48300170898438 356.5979919433594 233.2100067138672 364.0740051269531 208.45399475097656 395.3399963378906 198.57699584960938 391.1910095214844"></polyline>
			  <polyline class='line' points="217.617 311.992 192.247 239.499 186.845 212.145 184.768 195.602 184.968 175.148 187.445 154.747 195.095 127.837 196.877 116.591"></polyline>
			  <polyline class='line' points="209.474 90.894 217.545 89.699 227.377 93.026"></polyline>
			  <polyline class='line' points="241.007 98.89 272.117 115.236 273.677 133.404 270.379 133.908"></polyline>
			  <polyline class='line' points="267.609 129.926 276.243 142.025 277.019 147.745 272.656 148.09 262.094 136.639"></polyline>
			  <polyline class='line' points="220.837 282.881 230.101 277.349 239.362 259.499 253.63 239.942 278.962 212.346 295.648 199.009 300.471 201.127"></polyline>
			  <polyline class='line' points="297.7139892578125 199.89100646972656 316.6889953613281 186.69900512695312 353.00201416015625 190.8800048828125 462.32000732421875 218.26499938964844 417.9129943847656 232.19400024414062 411.60198974609375 231.22999572753906 355.1889953613281 207.79400634765625 318.47698974609375 192.79800415039062"></polyline>
			  <polyline class='line' points="180.6649932861328 377.5060119628906 186.375 394.9939880371094 193.67599487304688 396.4700012207031"></polyline>
			  <polyline class='line' points="213.1219940185547 367.822998046875 184.79400634765625 324.24200439453125 154.2550048828125 321.0589904785156 145.33099365234375 315.19500732421875 128.46400451660156 300.4939880371094 92.36499786376953 254.8699951171875"></polyline>
			  <polyline class='line' points="109.30400085449219 255.03700256347656 114.85199737548828 265.4880065917969 118.6050033569336 273.3559875488281"></polyline>
			  <polyline class='line' points="114.442 264.841 145.017 314.635"></polyline>
			  <polyline class='line' points="137.303 300.994 138.582 289.806 142.26 282.254 147.139 278.974 151.454 284.594"></polyline>
			  <polyline class='line' points="149.724 281.223 154.34 282.639 160.28 292.23 168.035 302.771"></polyline>
			  <polyline class='line' points="147.567 284.733 145.698 289.329 146.309 296.223 149.976 304.543 171.182 303.839 160.048 317.683"></polyline>
			  <polyline class='line' points="171.31199645996094 304.07000732421875 183.5919952392578 305.4849853515625"></polyline>
			  <polyline class='line' points="158.12600708007812 321.2659912109375 186.73899841308594 308.8940124511719 196.8769989013672 311.7770080566406 191.70599365234375 319.91400146484375 212.81900024414062 366.0889892578125"></polyline>
			  <polyline class='line' points="227.7830047607422 312.26800537109375 238.42100524902344 298.21099853515625 260.3070068359375 274.635986328125 281.9739990234375 251.61000061035156 287.0509948730469 239.1479949951172"></polyline>
			  <polyline class='line' points="282.0069885253906 242.3090057373047 301.510986328125 230.83799743652344 309.5469970703125 205.822998046875 300.6369934082031 201.11599731445312"></polyline>
			  <polyline class='line' points="141.803 374.045 147.799 386.464 158.32 385.482"></polyline>
			  <polyline class='line' points="153.685 386.286 170.914 395.667 182.691 396.776"></polyline>
			  <polyline class='line' points="79.134 344.328 96.183 292.861"></polyline>
			  <polyline class='line' points="114.026 355.594 122.461 315.351"></polyline>
			  <polyline class='line' points="289.05499267578125 307.68798828125 352.5469970703125 278.3599853515625 373.8210144042969 254.08200073242188 411.1289978027344 231.6020050048828"></polyline>
			  <polyline class='line' points="374.1679992675781 253.6750030517578 329.90899658203125 231.18499755859375"></polyline>
			  <line class='line' x1="294.25530202640005" y1="304.04641005000354" x2="231.912" y2="348.673"></line>
			</svg>